# xmcd
#
# Track frame offsets:
#	150
#	23040
#	36395
#	60414
#	78865
#	99293
#	121491
#	137642
#	156288
#	168658
#	185341
#	204436
#	224128
#	235402
#
# Disc length: 3381 seconds
#
# Revision: 1
# Processed by: cddbd v1.5.2PL0 Copyright (c) Steve Scherf et al.
# Submitted via: audiograbber 1.81.03
#
DISCID=c10d330e
DTITLE=Marc`Victor - Feels So Right
DYEAR=2006
DGENRE=Country
TTITLE0=Be A Better Way
TTITLE1=Feels So Right
TTITLE2=What's In It For Me
TTITLE3=When Do You Know It's Over
TTITLE4=Changed My Ways
TTITLE5=See It In Your Eyes
TTITLE6=Don't Give A Damn
TTITLE7=You Turn A Corner
TTITLE8=Squirrels
TTITLE9=You Drive Me Wild
TTITLE10=Never Forget Your Name
TTITLE11=It's All Downhill
TTITLE12=No Strings Attached
TTITLE13=Pour Tois
EXTD=
EXTT0=
EXTT1=
EXTT2=
EXTT3=
EXTT4=
EXTT5=
EXTT6=
EXTT7=
EXTT8=
EXTT9=
EXTT10=
EXTT11=
EXTT12=
EXTT13=
PLAYORDER=
